<svg width="47" height="47" viewBox="0 0 47 47" fill="none" xmlns="http://www.w3.org/2000/svg">
<path d="M19.8414 41.5348C19.8414 43.3151 18.3993 44.7571 16.6191 44.7571C14.8388 44.7571 13.3967 43.3138 13.3967 41.5348C13.3967 39.7559 14.8388 38.3125 16.6191 38.3125C18.3993 38.3125 19.8414 39.7546 19.8414 41.5348Z" stroke="#444444" stroke-width="2.59134" stroke-linecap="round" stroke-linejoin="round"/>
<path d="M39.542 41.5348C39.542 43.3151 38.0986 44.7571 36.3197 44.7571C34.5407 44.7571 33.0974 43.3138 33.0974 41.5348C33.0974 39.7559 34.5407 38.3125 36.3197 38.3125C38.0986 38.3125 39.542 39.7546 39.542 41.5348Z" stroke="#444444" stroke-width="2.59134" stroke-linecap="round" stroke-linejoin="round"/>
<path d="M40.8299 33.801H15.3285C13.5483 33.801 12.1062 32.3576 12.1062 30.5786C12.1062 28.7997 13.5483 27.3563 15.3285 27.3563" stroke="#444444" stroke-width="2.59134" stroke-linecap="round" stroke-linejoin="round"/>
<path d="M2 2H8.44467L13.8347 27.3563H40.83L44.8504 8.44467H10.0565" stroke="#444444" stroke-width="2.59134" stroke-linecap="round" stroke-linejoin="round"/>
</svg>
